<svg xmlns="http://www.w3.org/2000/svg" viewBox="26 30 1415 701">
  <path d="M 1067.179 55.195 C 1062.153 56.555, 1061.530 58.630, 1059.432 81 C 1058.020 96.064, 1055.906 120.516, 1054.937 133 C 1054.318 140.975, 1052.945 150.698, 1051.885 154.606 C 1049.847 162.121, 1049.148 173.654, 1050.453 178.250 C 1051.050 180.354, 1050.889 181, 1049.767 181 C 1048.184 181, 1044 201.788, 1044 209.654 C 1044 217.515, 1040.873 217.126, 1101.351 216.794 C 1164.255 216.449, 1158.214 217.814, 1160.534 203.425 C 1161.326 198.516, 1162.422 192.250, 1162.971 189.500 C 1163.519 186.750, 1164.426 177.838, 1164.986 169.697 C 1166.015 154.734, 1167.298 149.867, 1170.545 148.621 C 1171.435 148.280, 1226.102 148, 1292.026 148 L 1411.888 148 1414.543 145.717 C 1416.490 144.042, 1417.307 142.245, 1417.609 138.967 C 1417.836 136.510, 1418.893 126.175, 1419.959 116 C 1421.025 105.825, 1422.188 92.325, 1422.543 86 C 1422.899 79.675, 1423.848 71.199, 1424.653 67.163 C 1426.314 58.836, 1425.076 55, 1420.727 55 C 1419.502 55, 1340.200 54.842, 1244.500 54.649 C 1143.518 54.445, 1069.107 54.674, 1067.179 55.195 M 707 184.542 C 706.175 184.695, 702.137 185.369, 698.026 186.041 C 688.914 187.529, 683.222 189.445, 671.500 194.970 C 658.245 201.217, 655.078 202.924, 649 207.103 C 645.975 209.183, 640.575 212.127, 637 213.646 C 633.425 215.165, 628.425 217.666, 625.889 219.204 C 623.354 220.742, 620.875 222, 620.382 222 C 619.889 222, 616.698 224.431, 613.291 227.402 C 609.884 230.373, 604.488 234.637, 601.298 236.877 C 598.109 239.116, 593.620 243.360, 591.322 246.308 C 582.839 257.186, 560.878 274.607, 554.932 275.173 L 551.500 275.500 550.849 284 C 549.833 297.271, 549.931 321.361, 551.053 334 C 551.615 340.325, 552.284 348.337, 552.540 351.805 C 552.796 355.274, 553.643 359.343, 554.422 360.850 C 555.201 362.356, 556.584 366.467, 557.496 369.984 C 558.407 373.502, 559.993 378.026, 561.020 380.038 C 562.046 382.051, 563.554 386.578, 564.371 390.098 C 566.291 398.378, 571.730 411.227, 576.219 418.088 C 578.166 421.065, 580.305 425.207, 580.972 427.294 C 581.639 429.381, 583.804 433.206, 585.784 435.794 C 595.689 448.745, 597.843 451.736, 599.261 454.506 C 603.425 462.643, 635.211 491.236, 646.951 497.405 C 650.613 499.329, 655.609 502.661, 658.054 504.810 C 662.392 508.622, 672.839 513.818, 680.135 515.792 C 682.134 516.333, 687.164 518.836, 691.312 521.354 C 698.928 525.977, 701.538 526.741, 726 531.501 C 729.575 532.196, 737.900 533.925, 744.500 535.342 C 773.437 541.556, 812.195 541.854, 841.055 536.083 C 887.320 526.833, 893.203 525.181, 902.009 518.975 C 903.389 518.003, 906.365 516.710, 908.622 516.102 C 915.672 514.203, 928.095 507.971, 931.418 504.665 C 933.169 502.924, 937.503 500.048, 941.050 498.274 C 944.598 496.500, 950.875 492.065, 955 488.419 C 959.125 484.772, 964.300 480.539, 966.500 479.011 C 968.700 477.483, 972.072 474.268, 973.992 471.866 C 975.913 469.465, 979.640 465.117, 982.274 462.205 C 984.907 459.293, 986.816 456.511, 986.515 456.024 C 986.214 455.537, 986.425 454.856, 986.984 454.510 C 987.543 454.165, 988 453.545, 988 453.133 C 988 452.492, 970.476 434.392, 967.055 431.500 C 966.405 430.950, 963.260 427.800, 960.066 424.500 C 950.451 414.566, 938.692 403.456, 935.425 401.219 C 933.734 400.061, 931.111 397.324, 929.595 395.137 C 928.079 392.950, 925.143 389.985, 923.069 388.548 C 918.324 385.259, 916.001 385.993, 910.646 392.469 C 908.526 395.032, 903.914 399.392, 900.396 402.156 C 896.524 405.199, 894 407.936, 894 409.091 C 894 410.141, 893.438 411.052, 892.750 411.115 C 892.063 411.179, 891.050 411.292, 890.500 411.367 C 889.950 411.441, 887.577 412.752, 885.226 414.279 C 882.876 415.806, 879.276 417.763, 877.226 418.629 C 872.401 420.668, 870.665 421.606, 861.925 426.892 C 852.833 432.392, 838.838 435.647, 818.514 436.989 C 801.946 438.083, 772.555 436.747, 763.022 434.466 C 759.459 433.614, 755.634 433.020, 754.522 433.146 C 752.189 433.410, 747.564 431.223, 737 424.857 C 732.875 422.371, 726.435 418.649, 722.688 416.585 C 713.694 411.631, 698.023 397.219, 692.709 389.016 C 690.394 385.442, 686.373 380.158, 683.773 377.274 C 681.173 374.389, 678.779 370.785, 678.453 369.264 C 678.127 367.744, 677.182 364.475, 676.353 362 C 675.523 359.525, 674.376 355.700, 673.803 353.500 C 673.230 351.300, 671.742 346.350, 670.497 342.500 C 664.794 324.866, 662.909 294.913, 666.512 279.191 C 667.433 275.171, 667.898 270.731, 667.545 269.323 C 667.138 267.701, 667.435 266.168, 668.358 265.132 C 669.159 264.235, 670.333 261.475, 670.968 259 C 676.080 239.060, 679.535 229.929, 685.006 221.890 C 687.106 218.804, 690.025 213.910, 691.493 211.015 C 692.960 208.119, 696.937 202.716, 700.330 199.009 C 711.343 186.976, 713.131 184.430, 710.632 184.341 C 709.459 184.299, 707.825 184.390, 707 184.542 M 1034.354 362.806 C 1029.121 363.552, 1025.837 372.227, 1028.717 377.700 C 1030.275 380.661, 1030.279 381.034, 1028.768 382.704 C 1027.585 384.011, 1026.830 388.084, 1026.027 397.504 C 1024.037 420.827, 1020.999 450.381, 1020.014 456 C 1019.484 459.025, 1018.558 465.100, 1017.957 469.500 C 1017.357 473.900, 1016.219 481.325, 1015.429 486 C 1014.077 494, 1011.034 520.373, 1011.011 524.295 C 1011.005 525.283, 1012.105 527.195, 1013.455 528.545 L 1015.909 531 1199.955 531 C 1381.005 531, 1384.032 530.968, 1385.947 529.053 C 1389.041 525.959, 1389.943 520.633, 1391.504 496.273 C 1392.618 478.871, 1393.450 472.004, 1394.984 467.546 C 1397.121 461.336, 1397.671 454, 1396 454 C 1394.376 454, 1394.859 450.178, 1396.606 449.201 C 1399.124 447.792, 1399.712 439.444, 1397.468 436.965 C 1395.692 435.003, 1394.128 434.979, 1268.715 435.011 C 1134.113 435.046, 1139.805 435.246, 1137.969 430.419 C 1136.867 427.519, 1139.435 402.846, 1142.040 391.312 C 1143.951 382.849, 1143.992 381.886, 1142.558 379.112 C 1139.898 373.968, 1141.201 368.262, 1144.424 370.937 C 1146.819 372.924, 1146.538 367.885, 1144.085 364.861 L 1142.171 362.500 1089.335 362.500 C 1060.276 362.500, 1035.534 362.638, 1034.354 362.806" fill="#617C8C" fill-rule="evenodd"/>
  <path d="M 790.407 46.002 C 779.538 47.131, 759.217 50.814, 756.843 52.084 C 755.791 52.647, 750.473 53.957, 745.025 54.995 C 729.707 57.914, 711.765 63.934, 705.794 68.159 C 704.306 69.212, 700.706 70.910, 697.794 71.933 C 687.172 75.665, 679.426 79.326, 676.207 82.138 C 674.395 83.720, 670.219 86.375, 666.927 88.037 C 663.634 89.699, 658.914 92.606, 656.438 94.496 C 628.700 115.668, 609.150 135.346, 597.212 154.107 C 594.620 158.180, 590.658 163.985, 588.407 167.006 C 582.168 175.381, 567.492 206.795, 564.583 218 C 563.227 223.225, 560.985 230.875, 559.602 235 C 555.156 248.253, 552.140 259.378, 551.698 264.156 C 551.276 268.715, 551.332 268.822, 554.383 269.286 C 556.098 269.547, 558.400 269.304, 559.500 268.746 C 563.455 266.740, 575.680 256.388, 584.960 247.187 C 590.163 242.028, 596.463 236.425, 598.960 234.736 C 601.457 233.047, 605.556 229.603, 608.068 227.083 C 612.551 222.586, 625.120 214.942, 636 210.094 C 639.025 208.746, 643.975 206.024, 647 204.044 C 655.085 198.753, 678.578 187.399, 685.500 185.437 C 688.800 184.502, 696.850 181.741, 703.390 179.301 C 711.575 176.248, 716.560 174.936, 719.390 175.090 C 722.380 175.253, 724.727 174.570, 728 172.583 C 754.379 156.577, 756.076 155.859, 784 148.910 C 811.564 142.050, 843.791 143.547, 867.529 152.791 C 870.263 153.855, 874.300 155.047, 876.500 155.440 C 886.658 157.253, 915.533 178.880, 929.250 194.950 C 932.817 199.128, 935.173 197.829, 951.786 182.519 C 960.429 174.554, 971.077 164.766, 975.448 160.769 C 979.820 156.771, 986.795 150.077, 990.948 145.893 C 995.102 141.710, 1000.188 137.285, 1002.251 136.061 C 1012.695 129.865, 1011.906 125.611, 997.718 111.623 C 983.877 97.977, 976.726 91.868, 971.500 89.227 C 969.300 88.115, 965.475 85.424, 963 83.248 C 958.397 79.199, 949.391 74.269, 942.410 71.977 C 940.260 71.270, 934.450 68.557, 929.500 65.946 C 917.955 59.859, 893.922 53.188, 864.406 47.877 C 851.166 45.495, 806.241 44.357, 790.407 46.002 M 304.311 54 C 295.119 54.561, 291.264 56.963, 288.259 64 C 287.437 65.925, 285.478 69.300, 283.905 71.500 C 282.331 73.700, 279.867 78.425, 278.428 82 C 276.990 85.575, 274.816 89.850, 273.599 91.500 C 270.382 95.859, 265.699 104.639, 263.054 111.268 C 261.789 114.440, 259.409 118.715, 257.765 120.768 C 254.879 124.373, 246.975 139.923, 245.467 144.962 C 245.062 146.316, 242.587 150.221, 239.967 153.639 C 237.347 157.058, 234.646 161.575, 233.964 163.677 C 232.265 168.920, 227.780 177.725, 223.199 184.813 C 221.096 188.067, 218.551 192.929, 217.543 195.615 C 216.536 198.302, 213.259 204.253, 210.262 208.840 C 207.265 213.427, 203.526 220.300, 201.954 224.112 C 199.306 230.533, 194.952 238.454, 189.372 247 C 188.115 248.925, 186.086 252.975, 184.862 256 C 183.638 259.025, 181.880 262.625, 180.956 264 C 177.361 269.346, 169.761 283.426, 168.423 287.219 C 167.649 289.413, 165.002 294.236, 162.541 297.938 C 160.081 301.639, 156.174 308.680, 153.860 313.584 C 151.547 318.488, 147.766 325.425, 145.459 329 C 143.152 332.575, 139.367 339.862, 137.048 345.194 C 134.729 350.526, 131.376 356.826, 129.598 359.194 C 127.820 361.562, 124.614 367.325, 122.473 372 C 120.332 376.675, 116.948 382.660, 114.953 385.299 C 112.958 387.939, 108.937 395.364, 106.016 401.799 C 103.096 408.235, 99.476 415.075, 97.971 417 C 96.467 418.925, 93.193 424.775, 90.696 430 C 88.199 435.225, 84.406 442.200, 82.267 445.500 C 80.128 448.800, 76.842 454.875, 74.964 459 C 73.086 463.125, 70.301 468.501, 68.775 470.946 C 67.249 473.391, 66 475.783, 66 476.263 C 66 476.742, 64.907 478.566, 63.571 480.318 C 62.235 482.069, 60.192 485.719, 59.031 488.428 C 57.869 491.138, 53.581 499.237, 49.501 506.427 C 41.712 520.152, 39.826 526.113, 42.244 529.355 C 43.561 531.122, 46.155 531.210, 96.564 531.192 C 125.679 531.182, 150.497 531.134, 151.715 531.087 C 154.727 530.969, 160.636 525.602, 161.457 522.239 C 161.825 520.733, 163.220 517.905, 164.557 515.955 C 165.894 514.005, 168.100 509.572, 169.459 506.105 C 170.818 502.637, 174.643 494.972, 177.960 489.072 C 181.276 483.172, 184.895 475.711, 186.003 472.492 C 187.110 469.273, 188.615 465.933, 189.346 465.070 C 191.307 462.756, 199.300 447.398, 202.073 440.616 C 203.396 437.380, 205.420 434.115, 206.571 433.362 C 208.316 432.218, 226.144 432.033, 313.974 432.245 L 419.284 432.500 421.132 435 C 422.148 436.375, 423.859 440.960, 424.933 445.189 C 426.008 449.418, 428.755 457.293, 431.039 462.689 C 433.322 468.085, 435.871 475.425, 436.702 479 C 439.058 489.125, 446.484 512.763, 449.725 520.450 C 454.605 532.027, 449.436 531.117, 510.980 531.238 L 564.305 531.342 566.152 529.060 C 568.544 526.107, 568.526 525.852, 565.054 513.761 C 562.283 504.106, 560.078 498.065, 554.557 485 C 553.279 481.975, 551.961 477.656, 551.629 475.403 C 550.756 469.479, 540.971 440.551, 537.897 434.808 C 537.316 433.722, 535.332 426.908, 533.489 419.666 C 531.646 412.425, 528.393 402.450, 526.261 397.500 C 524.128 392.550, 520.902 383.550, 519.092 377.500 C 517.281 371.450, 515.114 364.700, 514.275 362.500 C 507.060 343.577, 505.051 337.629, 500.929 323 C 499.147 316.675, 495.893 307.225, 493.697 302 C 491.501 296.775, 488.239 286.875, 486.449 280 C 483.122 267.220, 478.611 253.928, 475.728 248.410 C 474.840 246.710, 473.441 242.660, 472.618 239.410 C 471.796 236.159, 470.215 229.900, 469.105 225.500 C 467.104 217.569, 461.072 201.997, 459.063 199.576 C 458.488 198.884, 457.330 194.690, 456.489 190.257 C 454.971 182.254, 450.869 169.382, 445.252 155 C 443.641 150.875, 441.323 143.450, 440.101 138.500 C 436.476 123.819, 433.503 115.381, 428.962 106.893 C 427.901 104.909, 426.351 100.184, 425.519 96.393 C 423.233 85.981, 419.478 72.749, 418.172 70.500 C 417.534 69.400, 416.071 65.898, 414.922 62.718 C 411.512 53.283, 414.890 53.843, 360.288 53.660 C 334.005 53.572, 308.815 53.725, 304.311 54 M 337.367 177.750 C 336.443 179.262, 334.667 182.127, 333.419 184.116 C 332.171 186.104, 330.632 189.704, 329.999 192.116 C 329.367 194.527, 327.146 199.425, 325.063 203 C 318.141 214.882, 314.970 221.005, 312.970 226.350 C 311.881 229.261, 308.980 235.211, 306.524 239.572 C 304.069 243.932, 300.477 250.875, 298.543 255 C 296.608 259.125, 294.273 263.850, 293.352 265.500 C 292.432 267.150, 290.493 270.750, 289.044 273.500 C 287.596 276.250, 285.690 279.625, 284.809 281 C 283.929 282.375, 282.890 284.625, 282.501 286 C 281.344 290.086, 273.906 305.171, 270.781 309.767 C 269.186 312.114, 266.997 316.614, 265.918 319.767 C 264.838 322.920, 262.675 327.300, 261.112 329.500 C 256.965 335.335, 256.514 337.514, 258.949 339.949 C 260.973 341.973, 261.811 342, 323.777 342 C 396.654 342, 391.670 342.686, 390.637 332.800 C 390.297 329.550, 387.554 319.589, 384.540 310.664 C 378.263 292.071, 374.728 280.096, 372.981 271.500 C 372.310 268.200, 369.980 260.775, 367.804 255 C 362.164 240.036, 361.214 236.839, 359.521 227.139 C 358.202 219.579, 346.364 181.510, 343.853 176.750 C 342.476 174.140, 339.269 174.634, 337.367 177.750 M 1221.329 190.098 C 1218.290 190.978, 1218.135 191.278, 1217.624 197.258 C 1214.748 230.891, 1214.164 235.304, 1212.242 237.878 L 1210.284 240.500 1039.892 240.774 C 946.176 240.924, 868.500 240.806, 867.279 240.512 C 863.084 239.501, 862.834 237.309, 864.585 216.910 C 866.332 196.557, 865.962 193, 862.098 193 C 861.029 193, 858.810 194.131, 857.167 195.513 C 855.525 196.894, 850.428 199.889, 845.841 202.168 C 841.253 204.447, 835.776 207.848, 833.670 209.725 C 831.563 211.603, 827.963 213.945, 825.670 214.928 C 823.376 215.911, 816.769 219.869, 810.986 223.722 C 805.203 227.575, 798.228 231.876, 795.486 233.279 C 792.744 234.682, 788.136 237.863, 785.246 240.349 C 782.356 242.834, 778.981 245.181, 777.746 245.564 C 774.603 246.538, 761.299 254.657, 756.500 258.530 C 754.300 260.306, 750.025 262.931, 747 264.365 C 743.975 265.799, 738.800 269.030, 735.500 271.544 C 732.200 274.059, 725.785 278.202, 721.244 280.750 C 707.018 288.734, 706.332 290.705, 715.715 296.638 C 718.897 298.650, 723.764 302.412, 726.530 304.997 C 729.297 307.582, 733.572 310.960, 736.030 312.504 C 738.489 314.047, 742.750 317.191, 745.500 319.490 C 748.250 321.789, 753.650 325.861, 757.500 328.539 C 761.350 331.217, 766.922 335.587, 769.882 338.251 C 772.842 340.915, 777.117 344.021, 779.382 345.153 C 781.647 346.286, 785.170 348.814, 787.211 350.771 C 789.253 352.729, 793.844 356.394, 797.415 358.915 C 800.985 361.437, 807.468 366.258, 811.821 369.628 C 816.173 372.998, 823.507 378.224, 828.117 381.241 C 845.877 392.862, 846.132 392.668, 848.649 365.646 C 850.528 345.465, 851.384 341.400, 854.054 339.971 C 856.904 338.446, 1198.080 338.437, 1200.929 339.962 C 1204.036 341.625, 1204.370 344.981, 1202.653 357.264 C 1198.089 389.895, 1199.408 394.809, 1211.081 388.679 C 1219.862 384.068, 1244.578 368.691, 1247.927 365.754 C 1249.812 364.102, 1252.962 362.084, 1254.927 361.271 C 1256.892 360.458, 1262.325 356.954, 1267 353.486 C 1271.675 350.018, 1278.875 345.340, 1283 343.091 C 1287.125 340.842, 1292.300 337.359, 1294.500 335.351 C 1296.700 333.343, 1300.396 330.854, 1302.714 329.820 C 1305.031 328.785, 1309.017 326.343, 1311.571 324.394 C 1316.971 320.272, 1327.825 313.376, 1333.434 310.503 C 1335.579 309.404, 1339.396 306.655, 1341.917 304.394 C 1344.438 302.133, 1348.370 299.332, 1350.655 298.169 C 1360.671 293.076, 1360.530 287.897, 1350.206 281.625 C 1347.001 279.678, 1342.380 276.342, 1339.939 274.213 C 1337.498 272.083, 1332.125 268.055, 1328 265.262 C 1323.875 262.469, 1317.861 257.927, 1314.637 255.170 C 1311.412 252.413, 1306.237 248.801, 1303.137 247.143 C 1300.036 245.485, 1295.700 242.262, 1293.500 239.980 C 1291.300 237.698, 1287.700 234.908, 1285.500 233.781 C 1283.300 232.654, 1279.475 230.066, 1277 228.030 C 1274.525 225.995, 1267.223 220.630, 1260.774 216.108 C 1254.325 211.586, 1248.785 207.460, 1248.463 206.939 C 1248.141 206.418, 1244.417 203.771, 1240.189 201.057 C 1235.960 198.342, 1230.949 194.519, 1229.054 192.561 C 1227.158 190.602, 1225.358 189.041, 1225.054 189.090 C 1224.749 189.140, 1223.073 189.593, 1221.329 190.098 M 210.500 614.498 C 207.750 615.250, 201.164 617.900, 195.863 620.387 C 187.164 624.469, 185.594 625.648, 179.724 632.500 C 170.507 643.260, 168.615 649.399, 169.175 666.730 C 169.680 682.328, 171.475 686.865, 181.420 697.669 C 191.730 708.869, 203.828 715.014, 216.997 715.740 C 228.753 716.387, 238.524 714.352, 245.736 709.754 C 261.846 699.481, 260.684 700.589, 265.600 690.801 C 274.916 672.252, 274.743 657.478, 264.981 638 C 260.727 629.511, 259.998 628.747, 251 623.343 C 236.051 614.365, 222.120 611.323, 210.500 614.498 M 843 614.297 C 829.285 618.242, 821.649 622.352, 814.164 629.818 C 810.129 633.842, 806.003 639.017, 804.996 641.318 C 800.969 650.510, 800.401 676.035, 804.013 685.534 C 805.835 690.327, 812.931 699.283, 817.812 702.951 C 838.830 718.744, 862.082 720.142, 882.041 706.814 C 892.665 699.719, 893.268 695.404, 884.514 689.117 C 878.901 685.086, 877.042 685.183, 867.623 690 C 855.242 696.332, 841.602 694.798, 832.906 686.097 C 828.909 682.097, 823 668.241, 823 662.868 C 823 657.805, 829.220 645.824, 833.949 641.776 C 842.130 634.773, 857.114 633.474, 867.721 638.848 C 875.954 643.019, 879.467 642.938, 885.233 638.446 C 892.650 632.668, 892.230 629.128, 883.463 623.520 C 870.145 615, 853.637 611.238, 843 614.297 M 1267.500 613.878 C 1254.029 617.500, 1239.944 624.818, 1235.074 630.727 C 1233.394 632.765, 1230.335 638.273, 1228.277 642.966 C 1224.597 651.359, 1224.536 651.706, 1224.578 664 C 1224.618 675.824, 1224.795 676.904, 1227.844 683.971 C 1234.596 699.615, 1239.008 703.934, 1256.717 712.233 C 1263.225 715.283, 1264.027 715.413, 1276.500 715.456 C 1291.004 715.505, 1295.917 714.330, 1306.059 708.386 C 1313.492 704.029, 1313.930 702.690, 1314.241 683.332 C 1314.497 667.359, 1314.470 667.131, 1312.036 664.539 C 1309.833 662.193, 1308.944 661.947, 1303.638 662.208 C 1295.125 662.627, 1293.691 664.780, 1293.563 677.333 C 1293.455 687.934, 1292.822 689.261, 1286.500 692.137 C 1273.023 698.267, 1251.561 688.502, 1249.016 675.082 C 1247.691 668.097, 1247.730 657.535, 1249.099 652.500 C 1253.077 637.869, 1278.246 630.508, 1293.575 639.491 C 1300.020 643.268, 1304.350 642.885, 1309.118 638.118 C 1317.045 630.191, 1314.010 625.425, 1296.020 617.552 C 1287.064 613.632, 1274.455 612.008, 1267.500 613.878 M 138.500 615.885 C 131.779 617.605, 126.766 622.682, 122.966 631.617 C 120.756 636.814, 114.027 648.526, 110.394 653.500 C 109.188 655.150, 106.835 659.538, 105.164 663.250 C 102.423 669.339, 101.841 670, 99.218 670 C 95.704 670, 93.989 668.216, 90.565 661 C 89.129 657.975, 86.164 653.025, 83.975 650 C 81.786 646.975, 77.953 640.450, 75.456 635.500 C 67.396 619.519, 62.116 615.163, 52.164 616.285 C 48.811 616.663, 46.940 617.531, 45.253 619.492 L 42.940 622.181 43.220 666.056 C 43.531 714.831, 43.159 712.344, 50.388 713.975 C 52.405 714.430, 55.875 714.558, 58.098 714.260 C 64.926 713.344, 65.439 711.670, 65.511 690.083 C 65.571 672.045, 66.330 667, 68.987 667 C 70.218 667, 75.399 674.626, 77.366 679.333 C 78.236 681.416, 80.908 685.456, 83.303 688.310 C 85.698 691.165, 88.245 694.978, 88.964 696.784 C 92.864 706.584, 104.801 706.241, 108.078 696.234 C 108.751 694.180, 111.028 690.531, 113.138 688.124 C 115.248 685.716, 118.312 680.918, 119.945 677.460 C 122.538 671.973, 125.969 668, 128.116 668 C 129.831 668, 130.445 672.896, 130.952 690.648 C 131.614 713.796, 131.708 714, 141.599 714 C 146.718 714, 148.352 713.581, 150.377 711.750 L 152.865 709.500 153.076 687 C 153.591 632.014, 153.230 621.376, 150.750 618.522 C 148.277 615.676, 143.408 614.628, 138.500 615.885 M 293 615.653 C 287.798 617.760, 288 615.793, 288 664.432 C 288 717.891, 287.141 714, 298.946 714 C 311.752 714, 311.397 714.700, 312 688.340 C 312.479 667.415, 312.914 664, 315.102 664 C 317.087 664, 326.266 673.592, 328.500 678 C 329.765 680.497, 333.095 684.686, 335.900 687.310 C 338.705 689.934, 341.957 693.956, 343.127 696.248 C 345.186 700.285, 354.081 709.658, 358.829 712.795 C 360.283 713.755, 363.441 714.333, 367.235 714.333 C 377.573 714.333, 377.010 717.072, 376.944 667.139 C 376.880 618.958, 376.794 618.258, 370.673 616.254 C 365.681 614.620, 359.230 615.679, 356.294 618.615 C 354.058 620.851, 354 621.407, 353.985 640.705 C 353.971 660.284, 353.326 664.740, 350.367 665.715 C 349.180 666.106, 334.469 649.834, 328.800 641.857 C 321.675 631.833, 311.387 619.955, 307.788 617.596 C 305.278 615.952, 295.451 614.661, 293 615.653 M 404.562 616.029 C 396.718 617.458, 397 615.606, 397 665.611 C 397 708.667, 397.060 710.060, 399 712 C 400.184 713.184, 402.325 713.997, 404.250 713.993 C 406.038 713.989, 420.046 714.215, 435.381 714.496 C 472.039 715.167, 473 714.891, 473 703.677 C 473 693.538, 473.034 693.552, 446.578 693.197 L 423.976 692.893 422.365 690.435 C 419.896 686.666, 420.928 677.291, 424.096 674.706 C 426.308 672.901, 427.578 672.791, 440 673.329 C 462.433 674.299, 466.618 672.790, 466.344 663.834 C 466.069 654.825, 465.269 654.500, 443.386 654.500 C 425.091 654.500, 424.802 654.467, 422.914 652.139 C 419.404 647.810, 420.967 637.857, 425.402 636.303 C 426.556 635.898, 436.369 635.552, 447.209 635.534 C 469.500 635.496, 469.637 635.451, 471.018 627.903 C 471.978 622.653, 470.945 619.665, 467.356 617.313 C 464.903 615.706, 461.738 615.512, 436.561 615.417 C 421.127 615.359, 406.728 615.635, 404.562 616.029 M 482 616.290 C 480.625 616.983, 479.362 618.508, 479.193 619.679 C 478.813 622.312, 486.187 636.205, 495.019 649.500 C 498.673 655, 502.890 661.975, 504.390 665 C 505.890 668.025, 508.075 672.285, 509.245 674.467 C 511.016 677.770, 511.490 680.929, 512.079 693.336 C 513.004 712.807, 515.259 716.054, 526.705 714.396 C 534.389 713.282, 534.431 713.184, 535.058 694.831 C 535.646 677.636, 535.795 677.031, 541.405 669 C 545.690 662.866, 553 650.578, 553 649.509 C 553 649.030, 555.409 645.457, 558.353 641.569 C 565.155 632.587, 570.816 620.520, 569.335 618.161 C 568.022 616.072, 559.763 614.985, 555 616.275 C 548.799 617.955, 538.683 631.008, 530.853 647.436 C 526.683 656.183, 523.364 656.159, 519 647.350 C 517.625 644.574, 515.335 640.547, 513.911 638.401 C 512.488 636.256, 509.143 630.836, 506.479 626.358 C 503.816 621.880, 500.411 617.493, 498.914 616.608 C 495.624 614.665, 485.598 614.476, 482 616.290 M 711.315 616.007 C 705.186 618.477, 707.262 626.274, 717.017 637.422 C 719.782 640.582, 722.995 645.042, 724.157 647.334 C 725.319 649.625, 727.589 653.012, 729.202 654.861 C 734.857 661.343, 734.899 665.928, 729.351 671.140 C 727.982 672.426, 725.433 676.159, 723.686 679.437 C 721.939 682.715, 718.883 686.995, 716.895 688.948 C 713.318 692.463, 705.780 704.502, 704.562 708.645 C 702.818 714.580, 719.142 717.413, 726.670 712.481 C 729.529 710.607, 736.565 701.258, 740.500 694.102 C 746.654 682.911, 751.121 682.726, 757.852 693.383 C 760.123 696.979, 764.331 702.869, 767.202 706.472 C 773.314 714.141, 775.757 715.141, 786.312 714.301 C 797.405 713.418, 798.302 711.731, 792.070 703.477 C 789.909 700.614, 787.474 696.748, 786.660 694.886 C 785.846 693.024, 783.065 689.250, 780.480 686.500 C 777.896 683.750, 775.117 679.960, 774.306 678.079 C 773.494 676.197, 771.293 672.645, 769.415 670.185 C 765.177 664.634, 765.106 661.534, 769.094 656.028 C 770.796 653.679, 772.654 650.349, 773.223 648.628 C 773.792 646.908, 776.616 643.025, 779.499 640 C 786.280 632.885, 792.950 620.760, 791.423 618.322 C 789.254 614.858, 777.894 614.255, 772.328 617.309 C 769.364 618.934, 760.968 628.672, 757.653 634.329 C 751.773 644.362, 745.777 643.419, 739.651 631.500 C 735.592 623.603, 729.190 617.039, 724.500 615.964 C 719.547 614.829, 714.195 614.847, 711.315 616.007 M 1046.252 616.220 C 1043.772 617.416, 1038 628.078, 1038 631.464 C 1038 632.643, 1036.648 635.740, 1034.996 638.345 C 1030.521 645.402, 1027.544 651.689, 1024.980 659.500 C 1023.717 663.350, 1019.876 672.350, 1016.445 679.500 C 1010.185 692.546, 1005 706.357, 1005 709.986 C 1005 712.872, 1008.053 714, 1015.863 714 C 1024.088 714, 1024.231 713.893, 1029.907 703.552 C 1035.818 692.781, 1036.309 692.559, 1054.953 692.205 C 1074.778 691.830, 1075.461 692.127, 1082.460 704.175 C 1087.970 713.659, 1089.758 715.007, 1096.797 714.985 C 1102.569 714.967, 1106.397 713.164, 1106.814 710.267 C 1107.376 706.364, 1102.910 692.865, 1098.319 684.586 C 1093.437 675.782, 1090.244 668.542, 1087.476 660 C 1085.508 653.929, 1080.769 644.048, 1077.737 639.692 C 1076.661 638.148, 1074.956 634.159, 1073.948 630.828 C 1071.306 622.102, 1067.858 617.332, 1063.271 616.058 C 1058.465 614.724, 1049.171 614.812, 1046.252 616.220 M 1124.421 616.395 C 1119.001 618.797, 1118.912 619.661, 1119.219 666.872 L 1119.500 710.178 1121.861 712.089 C 1123.627 713.519, 1125.810 714, 1130.529 714 C 1142.413 714, 1142.368 714.096, 1143 687.283 C 1143.430 669.041, 1143.739 665.827, 1145.208 664.361 C 1146.817 662.754, 1147.076 662.845, 1149.708 665.932 C 1151.243 667.733, 1154.587 671.523, 1157.139 674.354 C 1159.690 677.184, 1165.344 684.225, 1169.703 690 C 1185.467 710.886, 1188.634 713.956, 1194.650 714.183 C 1209.049 714.727, 1208 718.518, 1208 665.936 C 1208 619.169, 1207.869 617.834, 1203.112 616.205 C 1198.844 614.744, 1189.280 616.276, 1186.722 618.832 C 1184.587 620.965, 1184.488 621.887, 1184.180 642.462 C 1183.850 664.447, 1183.391 666.855, 1179.790 665.473 C 1178.090 664.821, 1168.496 653.344, 1164.765 647.500 C 1163.361 645.300, 1160.335 641.700, 1158.042 639.500 C 1155.749 637.300, 1152.740 633.428, 1151.356 630.895 C 1145.467 620.118, 1132.172 612.960, 1124.421 616.395 M 1340.024 616.112 C 1332.791 617.626, 1333 616.196, 1333 664.064 C 1333 693.775, 1333.346 707.666, 1334.130 709.385 C 1336.179 713.883, 1338.907 714.241, 1372.099 714.369 L 1403.183 714.489 1405.591 711.689 C 1409.125 707.581, 1409.047 698.956, 1405.445 695.354 L 1402.890 692.800 1381.983 693.150 C 1357.751 693.556, 1357.965 693.629, 1357.228 684.733 C 1356.841 680.073, 1357.116 678.977, 1359.310 676.432 L 1361.837 673.500 1377.668 673.500 C 1388.521 673.500, 1394.481 673.086, 1396.620 672.182 C 1402.252 669.804, 1403.773 662.170, 1399.584 657.306 L 1397.167 654.500 1380.334 654.394 C 1359.652 654.263, 1360.480 654.338, 1358.571 652.429 C 1356.557 650.414, 1356.454 641.130, 1358.417 638.441 C 1359.720 636.656, 1361.522 636.460, 1380.814 636 C 1404.664 635.432, 1405.399 635.189, 1406.550 627.517 C 1407.317 622.397, 1405.086 617.295, 1401.732 616.500 C 1398.157 615.653, 1343.850 615.312, 1340.024 616.112 M 624.321 617.189 C 620.109 619.225, 619.923 621.453, 620.218 666.371 L 620.500 709.175 623.116 711.424 C 625.658 713.610, 626.539 713.690, 654.616 714.277 C 693.146 715.082, 695 714.649, 695 704.856 C 695 693.927, 693.256 693.179, 667.500 693.062 L 648.500 692.977 646.250 690.433 C 642.967 686.720, 643.074 678.835, 646.455 675.455 C 648.867 673.042, 649.199 673, 665.820 673 C 686.058 673, 688 672.244, 688 664.362 C 688 655.059, 684.949 653.818, 662.818 654.116 C 645.060 654.355, 644 653.835, 644 644.889 C 644 636.745, 645.407 636.014, 661.250 635.929 C 690.459 635.772, 693 634.922, 693 625.309 C 693 615.698, 694.110 615.989, 657.750 616.068 C 638.048 616.110, 625.695 616.525, 624.321 617.189 M 907.861 617.911 L 905.500 619.821 905.178 656.661 C 904.673 714.362, 904.596 714, 917.309 714 C 928.591 714, 928.405 714.309, 929 694.610 C 929.652 673.034, 929.226 673.575, 945.776 673.318 C 969.645 672.948, 970.474 673.624, 970.569 693.547 C 970.662 712.937, 972.995 716.037, 986.260 714.398 C 994.344 713.399, 994 715.574, 994 665.412 C 994 622.269, 993.953 621.210, 991.927 618.635 C 988.171 613.859, 973.301 615.684, 971.364 621.159 C 970.909 622.446, 970.659 628.966, 970.808 635.648 C 971.069 647.294, 970.979 647.913, 968.627 650.648 L 966.173 653.500 949.622 653.500 C 928.878 653.500, 930.115 654.476, 929.970 638 C 929.793 617.776, 928.711 616, 916.564 616 C 911.811 616, 909.630 616.479, 907.861 617.911 M 217.500 635.470 C 216.950 635.675, 214.327 636.136, 211.672 636.494 C 193.627 638.930, 186.994 667.882, 200.442 685.513 C 203.658 689.729, 214.583 694.310, 221.500 694.342 C 229.830 694.381, 242.970 686.708, 245.680 680.222 C 249.021 672.228, 248.365 653.716, 244.469 645.998 C 241.988 641.085, 222.670 633.543, 217.500 635.470 M 1051.788 652.193 C 1040.485 667.762, 1042.221 674.622, 1057.255 673.802 C 1069.332 673.144, 1070.301 670.196, 1062.777 657 C 1057.705 648.106, 1055.466 647.126, 1051.788 652.193" fill="#EF781E" fill-rule="evenodd"/>
</svg>
